<mxfile host="app.diagrams.net" modified="2023-11-21T22:51:40.742Z" agent="Mozilla/5.0 (Windows NT 10.0; Win64; x64) AppleWebKit/537.36 (KHTML, like Gecko) Chrome/119.0.0.0 Safari/537.36" etag="WKx-Bmxtp7FyTpX4Nk_g" version="22.1.3" type="device">
  <diagram name="Page-1" id="AOHJq-gWs2Hb52TCvAqa">
    <mxGraphModel dx="1000" dy="530" grid="1" gridSize="10" guides="1" tooltips="1" connect="1" arrows="1" fold="1" page="1" pageScale="1" pageWidth="850" pageHeight="4000" math="0" shadow="0">
      <root>
        <mxCell id="0" />
        <mxCell id="1" parent="0" />
        <mxCell id="Y_l35wtoBxG53FWhyY2N-1" value="Dataset" style="rounded=0;whiteSpace=wrap;html=1;" vertex="1" parent="1">
          <mxGeometry x="350" y="10" width="120" height="60" as="geometry" />
        </mxCell>
        <mxCell id="Y_l35wtoBxG53FWhyY2N-55" style="edgeStyle=orthogonalEdgeStyle;rounded=0;orthogonalLoop=1;jettySize=auto;html=1;exitX=0.5;exitY=1;exitDx=0;exitDy=0;entryX=0.5;entryY=0;entryDx=0;entryDy=0;" edge="1" parent="1" source="Y_l35wtoBxG53FWhyY2N-2" target="Y_l35wtoBxG53FWhyY2N-5">
          <mxGeometry relative="1" as="geometry" />
        </mxCell>
        <mxCell id="Y_l35wtoBxG53FWhyY2N-56" style="edgeStyle=orthogonalEdgeStyle;rounded=0;orthogonalLoop=1;jettySize=auto;html=1;" edge="1" parent="1" source="Y_l35wtoBxG53FWhyY2N-2" target="Y_l35wtoBxG53FWhyY2N-29">
          <mxGeometry relative="1" as="geometry" />
        </mxCell>
        <mxCell id="Y_l35wtoBxG53FWhyY2N-2" value="No data augmentation&lt;br&gt;Condition A" style="rounded=0;whiteSpace=wrap;html=1;" vertex="1" parent="1">
          <mxGeometry x="110" y="280" width="120" height="60" as="geometry" />
        </mxCell>
        <mxCell id="Y_l35wtoBxG53FWhyY2N-69" style="edgeStyle=orthogonalEdgeStyle;rounded=0;orthogonalLoop=1;jettySize=auto;html=1;" edge="1" parent="1" source="Y_l35wtoBxG53FWhyY2N-3">
          <mxGeometry relative="1" as="geometry">
            <mxPoint x="410" y="650" as="targetPoint" />
          </mxGeometry>
        </mxCell>
        <mxCell id="Y_l35wtoBxG53FWhyY2N-3" value="Class Sensitive Learning&lt;br&gt;Condition B" style="rounded=0;whiteSpace=wrap;html=1;" vertex="1" parent="1">
          <mxGeometry x="350" y="280" width="120" height="60" as="geometry" />
        </mxCell>
        <mxCell id="Y_l35wtoBxG53FWhyY2N-4" value="Data Augmentation&lt;br&gt;Condition&amp;nbsp; D" style="rounded=0;whiteSpace=wrap;html=1;" vertex="1" parent="1">
          <mxGeometry x="670" y="280" width="120" height="60" as="geometry" />
        </mxCell>
        <mxCell id="Y_l35wtoBxG53FWhyY2N-61" value="" style="edgeStyle=orthogonalEdgeStyle;rounded=0;orthogonalLoop=1;jettySize=auto;html=1;" edge="1" parent="1" source="Y_l35wtoBxG53FWhyY2N-5" target="Y_l35wtoBxG53FWhyY2N-6">
          <mxGeometry relative="1" as="geometry" />
        </mxCell>
        <mxCell id="Y_l35wtoBxG53FWhyY2N-5" value="CNN 1&lt;br&gt;model &lt;br&gt;proposed by paper" style="rounded=0;whiteSpace=wrap;html=1;" vertex="1" parent="1">
          <mxGeometry x="60" y="460" width="110" height="60" as="geometry" />
        </mxCell>
        <mxCell id="Y_l35wtoBxG53FWhyY2N-11" value="Divide into Train / Validation / Test" style="rounded=0;whiteSpace=wrap;html=1;" vertex="1" parent="1">
          <mxGeometry x="235" y="120" width="350" height="60" as="geometry" />
        </mxCell>
        <mxCell id="Y_l35wtoBxG53FWhyY2N-12" value="Best data augmentation" style="rounded=0;whiteSpace=wrap;html=1;" vertex="1" parent="1">
          <mxGeometry x="508.75" y="980" width="150" height="60" as="geometry" />
        </mxCell>
        <mxCell id="Y_l35wtoBxG53FWhyY2N-85" style="edgeStyle=orthogonalEdgeStyle;rounded=0;orthogonalLoop=1;jettySize=auto;html=1;entryX=0.5;entryY=0;entryDx=0;entryDy=0;" edge="1" parent="1" source="Y_l35wtoBxG53FWhyY2N-13" target="Y_l35wtoBxG53FWhyY2N-81">
          <mxGeometry relative="1" as="geometry" />
        </mxCell>
        <mxCell id="Y_l35wtoBxG53FWhyY2N-13" value="Pretrained&amp;nbsp;&lt;br&gt;ResNET" style="rounded=0;whiteSpace=wrap;html=1;" vertex="1" parent="1">
          <mxGeometry x="409.75" y="1080" width="130" height="60" as="geometry" />
        </mxCell>
        <mxCell id="Y_l35wtoBxG53FWhyY2N-15" value="" style="endArrow=classic;html=1;rounded=0;" edge="1" parent="1">
          <mxGeometry width="50" height="50" relative="1" as="geometry">
            <mxPoint x="209.5" y="680" as="sourcePoint" />
            <mxPoint x="209.5" y="680" as="targetPoint" />
          </mxGeometry>
        </mxCell>
        <mxCell id="Y_l35wtoBxG53FWhyY2N-19" value="" style="endArrow=classic;html=1;rounded=0;exitX=0.5;exitY=1;exitDx=0;exitDy=0;" edge="1" parent="1" source="Y_l35wtoBxG53FWhyY2N-11" target="Y_l35wtoBxG53FWhyY2N-3">
          <mxGeometry width="50" height="50" relative="1" as="geometry">
            <mxPoint x="410" y="190" as="sourcePoint" />
            <mxPoint x="410" y="190" as="targetPoint" />
          </mxGeometry>
        </mxCell>
        <mxCell id="Y_l35wtoBxG53FWhyY2N-21" value="" style="endArrow=none;html=1;rounded=0;" edge="1" parent="1">
          <mxGeometry width="50" height="50" relative="1" as="geometry">
            <mxPoint x="170" y="220" as="sourcePoint" />
            <mxPoint x="730" y="220" as="targetPoint" />
          </mxGeometry>
        </mxCell>
        <mxCell id="Y_l35wtoBxG53FWhyY2N-22" value="" style="endArrow=classic;html=1;rounded=0;entryX=0.5;entryY=0;entryDx=0;entryDy=0;" edge="1" parent="1" target="Y_l35wtoBxG53FWhyY2N-2">
          <mxGeometry width="50" height="50" relative="1" as="geometry">
            <mxPoint x="170" y="220" as="sourcePoint" />
            <mxPoint x="430" y="280" as="targetPoint" />
          </mxGeometry>
        </mxCell>
        <mxCell id="Y_l35wtoBxG53FWhyY2N-24" value="" style="endArrow=classic;html=1;rounded=0;entryX=0.5;entryY=0;entryDx=0;entryDy=0;" edge="1" parent="1">
          <mxGeometry width="50" height="50" relative="1" as="geometry">
            <mxPoint x="729.52" y="220" as="sourcePoint" />
            <mxPoint x="729.52" y="280" as="targetPoint" />
          </mxGeometry>
        </mxCell>
        <mxCell id="Y_l35wtoBxG53FWhyY2N-25" value="" style="endArrow=classic;html=1;rounded=0;entryX=0.5;entryY=0;entryDx=0;entryDy=0;exitX=0.5;exitY=1;exitDx=0;exitDy=0;" edge="1" parent="1" source="Y_l35wtoBxG53FWhyY2N-1" target="Y_l35wtoBxG53FWhyY2N-11">
          <mxGeometry width="50" height="50" relative="1" as="geometry">
            <mxPoint x="404.5" y="70" as="sourcePoint" />
            <mxPoint x="404.5" y="110" as="targetPoint" />
          </mxGeometry>
        </mxCell>
        <mxCell id="Y_l35wtoBxG53FWhyY2N-62" value="" style="edgeStyle=orthogonalEdgeStyle;rounded=0;orthogonalLoop=1;jettySize=auto;html=1;" edge="1" parent="1" source="Y_l35wtoBxG53FWhyY2N-29" target="Y_l35wtoBxG53FWhyY2N-57">
          <mxGeometry relative="1" as="geometry" />
        </mxCell>
        <mxCell id="Y_l35wtoBxG53FWhyY2N-29" value="CNN 2&lt;br&gt;model &lt;br&gt;proposed by us" style="rounded=0;whiteSpace=wrap;html=1;" vertex="1" parent="1">
          <mxGeometry x="180" y="460" width="100" height="60" as="geometry" />
        </mxCell>
        <mxCell id="Y_l35wtoBxG53FWhyY2N-6" value="Metrics&amp;nbsp; A.1" style="rounded=0;whiteSpace=wrap;html=1;" vertex="1" parent="1">
          <mxGeometry x="75" y="560" width="80" height="52" as="geometry" />
        </mxCell>
        <mxCell id="Y_l35wtoBxG53FWhyY2N-40" value="Metrics B" style="rounded=0;whiteSpace=wrap;html=1;" vertex="1" parent="1">
          <mxGeometry x="342" y="760" width="130" height="60" as="geometry" />
        </mxCell>
        <mxCell id="Y_l35wtoBxG53FWhyY2N-41" value="Metrics D" style="rounded=0;whiteSpace=wrap;html=1;" vertex="1" parent="1">
          <mxGeometry x="678" y="760" width="115" height="60" as="geometry" />
        </mxCell>
        <mxCell id="Y_l35wtoBxG53FWhyY2N-71" style="edgeStyle=orthogonalEdgeStyle;rounded=0;orthogonalLoop=1;jettySize=auto;html=1;exitX=0.178;exitY=1.051;exitDx=0;exitDy=0;exitPerimeter=0;" edge="1" parent="1" source="Y_l35wtoBxG53FWhyY2N-42" target="Y_l35wtoBxG53FWhyY2N-40">
          <mxGeometry relative="1" as="geometry">
            <mxPoint x="410" y="720" as="sourcePoint" />
          </mxGeometry>
        </mxCell>
        <mxCell id="Y_l35wtoBxG53FWhyY2N-42" value="Best CNN model" style="rounded=0;whiteSpace=wrap;html=1;" vertex="1" parent="1">
          <mxGeometry x="320" y="650" width="490" height="60" as="geometry" />
        </mxCell>
        <mxCell id="Y_l35wtoBxG53FWhyY2N-57" value="Metrics A.2" style="rounded=0;whiteSpace=wrap;html=1;" vertex="1" parent="1">
          <mxGeometry x="190" y="560" width="80" height="52" as="geometry" />
        </mxCell>
        <mxCell id="Y_l35wtoBxG53FWhyY2N-63" value="" style="endArrow=none;dashed=1;html=1;dashPattern=1 3;strokeWidth=2;rounded=0;exitX=1;exitY=0.5;exitDx=0;exitDy=0;entryX=0;entryY=0.5;entryDx=0;entryDy=0;" edge="1" parent="1" source="Y_l35wtoBxG53FWhyY2N-6" target="Y_l35wtoBxG53FWhyY2N-57">
          <mxGeometry width="50" height="50" relative="1" as="geometry">
            <mxPoint x="300" y="540" as="sourcePoint" />
            <mxPoint x="350" y="490" as="targetPoint" />
          </mxGeometry>
        </mxCell>
        <mxCell id="Y_l35wtoBxG53FWhyY2N-64" value="" style="endArrow=none;dashed=1;html=1;dashPattern=1 3;strokeWidth=2;rounded=0;" edge="1" parent="1">
          <mxGeometry width="50" height="50" relative="1" as="geometry">
            <mxPoint x="172" y="590" as="sourcePoint" />
            <mxPoint x="172" y="650" as="targetPoint" />
          </mxGeometry>
        </mxCell>
        <mxCell id="Y_l35wtoBxG53FWhyY2N-68" style="edgeStyle=orthogonalEdgeStyle;rounded=0;orthogonalLoop=1;jettySize=auto;html=1;entryX=0;entryY=0.5;entryDx=0;entryDy=0;" edge="1" parent="1" source="Y_l35wtoBxG53FWhyY2N-67" target="Y_l35wtoBxG53FWhyY2N-42">
          <mxGeometry relative="1" as="geometry" />
        </mxCell>
        <mxCell id="Y_l35wtoBxG53FWhyY2N-67" value="Comparison:&lt;br style=&quot;border-color: var(--border-color);&quot;&gt;&lt;span style=&quot;&quot;&gt;which model performs best?&lt;/span&gt;" style="rounded=0;whiteSpace=wrap;html=1;" vertex="1" parent="1">
          <mxGeometry x="90" y="650" width="145" height="60" as="geometry" />
        </mxCell>
        <mxCell id="Y_l35wtoBxG53FWhyY2N-70" style="edgeStyle=orthogonalEdgeStyle;rounded=0;orthogonalLoop=1;jettySize=auto;html=1;entryX=0.839;entryY=0.025;entryDx=0;entryDy=0;entryPerimeter=0;" edge="1" parent="1" source="Y_l35wtoBxG53FWhyY2N-4" target="Y_l35wtoBxG53FWhyY2N-42">
          <mxGeometry relative="1" as="geometry" />
        </mxCell>
        <mxCell id="Y_l35wtoBxG53FWhyY2N-72" style="edgeStyle=orthogonalEdgeStyle;rounded=0;orthogonalLoop=1;jettySize=auto;html=1;exitX=0.25;exitY=1;exitDx=0;exitDy=0;" edge="1" parent="1">
          <mxGeometry relative="1" as="geometry">
            <mxPoint x="741" y="710" as="sourcePoint" />
            <mxPoint x="740" y="760" as="targetPoint" />
          </mxGeometry>
        </mxCell>
        <mxCell id="Y_l35wtoBxG53FWhyY2N-73" value="" style="endArrow=none;dashed=1;html=1;dashPattern=1 3;strokeWidth=2;rounded=0;exitX=1;exitY=0.5;exitDx=0;exitDy=0;" edge="1" parent="1">
          <mxGeometry width="50" height="50" relative="1" as="geometry">
            <mxPoint x="400" y="820" as="sourcePoint" />
            <mxPoint x="400" y="849.53" as="targetPoint" />
            <Array as="points">
              <mxPoint x="400" y="839.53" />
            </Array>
          </mxGeometry>
        </mxCell>
        <mxCell id="Y_l35wtoBxG53FWhyY2N-74" value="" style="endArrow=none;dashed=1;html=1;dashPattern=1 3;strokeWidth=2;rounded=0;" edge="1" parent="1">
          <mxGeometry width="50" height="50" relative="1" as="geometry">
            <mxPoint x="400" y="850" as="sourcePoint" />
            <mxPoint x="750" y="850" as="targetPoint" />
          </mxGeometry>
        </mxCell>
        <mxCell id="Y_l35wtoBxG53FWhyY2N-76" style="edgeStyle=orthogonalEdgeStyle;rounded=0;orthogonalLoop=1;jettySize=auto;html=1;entryX=0.5;entryY=0;entryDx=0;entryDy=0;" edge="1" parent="1" source="Y_l35wtoBxG53FWhyY2N-75" target="Y_l35wtoBxG53FWhyY2N-12">
          <mxGeometry relative="1" as="geometry" />
        </mxCell>
        <mxCell id="Y_l35wtoBxG53FWhyY2N-75" value="Comparison:&lt;br style=&quot;border-color: var(--border-color);&quot;&gt;&lt;span style=&quot;&quot;&gt;which data augmentation technique performs best?&lt;/span&gt;" style="rounded=0;whiteSpace=wrap;html=1;" vertex="1" parent="1">
          <mxGeometry x="512.75" y="890" width="140" height="60" as="geometry" />
        </mxCell>
        <mxCell id="Y_l35wtoBxG53FWhyY2N-86" style="edgeStyle=orthogonalEdgeStyle;rounded=0;orthogonalLoop=1;jettySize=auto;html=1;entryX=0.5;entryY=0;entryDx=0;entryDy=0;" edge="1" parent="1" source="Y_l35wtoBxG53FWhyY2N-78" target="Y_l35wtoBxG53FWhyY2N-82">
          <mxGeometry relative="1" as="geometry" />
        </mxCell>
        <mxCell id="Y_l35wtoBxG53FWhyY2N-78" value="Pretrained&amp;nbsp;&lt;br&gt;Transformer" style="rounded=0;whiteSpace=wrap;html=1;" vertex="1" parent="1">
          <mxGeometry x="620.25" y="1080" width="130" height="60" as="geometry" />
        </mxCell>
        <mxCell id="Y_l35wtoBxG53FWhyY2N-79" value="" style="endArrow=classic;html=1;rounded=0;exitX=0.5;exitY=1;exitDx=0;exitDy=0;entryX=0.404;entryY=-0.054;entryDx=0;entryDy=0;entryPerimeter=0;" edge="1" parent="1" source="Y_l35wtoBxG53FWhyY2N-12" target="Y_l35wtoBxG53FWhyY2N-13">
          <mxGeometry width="50" height="50" relative="1" as="geometry">
            <mxPoint x="402.75" y="1070" as="sourcePoint" />
            <mxPoint x="452.75" y="1020" as="targetPoint" />
            <Array as="points">
              <mxPoint x="582.75" y="1060" />
              <mxPoint x="462.75" y="1060" />
            </Array>
          </mxGeometry>
        </mxCell>
        <mxCell id="Y_l35wtoBxG53FWhyY2N-80" value="" style="endArrow=classic;html=1;rounded=0;exitX=0.5;exitY=1;exitDx=0;exitDy=0;entryX=0.5;entryY=0;entryDx=0;entryDy=0;" edge="1" parent="1" source="Y_l35wtoBxG53FWhyY2N-12" target="Y_l35wtoBxG53FWhyY2N-78">
          <mxGeometry width="50" height="50" relative="1" as="geometry">
            <mxPoint x="402.75" y="1070" as="sourcePoint" />
            <mxPoint x="452.75" y="1020" as="targetPoint" />
            <Array as="points">
              <mxPoint x="583.75" y="1060" />
              <mxPoint x="685.75" y="1060" />
            </Array>
          </mxGeometry>
        </mxCell>
        <mxCell id="Y_l35wtoBxG53FWhyY2N-81" value="Metrics ResNET" style="rounded=0;whiteSpace=wrap;html=1;" vertex="1" parent="1">
          <mxGeometry x="409.75" y="1190" width="130" height="60" as="geometry" />
        </mxCell>
        <mxCell id="Y_l35wtoBxG53FWhyY2N-82" value="Metrics Transformer" style="rounded=0;whiteSpace=wrap;html=1;" vertex="1" parent="1">
          <mxGeometry x="620.25" y="1190" width="130" height="60" as="geometry" />
        </mxCell>
        <mxCell id="Y_l35wtoBxG53FWhyY2N-87" value="" style="endArrow=none;dashed=1;html=1;dashPattern=1 3;strokeWidth=2;rounded=0;entryX=0;entryY=0.5;entryDx=0;entryDy=0;" edge="1" parent="1" target="Y_l35wtoBxG53FWhyY2N-82">
          <mxGeometry width="50" height="50" relative="1" as="geometry">
            <mxPoint x="542.75" y="1219.33" as="sourcePoint" />
            <mxPoint x="602.75" y="1219.33" as="targetPoint" />
          </mxGeometry>
        </mxCell>
        <mxCell id="Y_l35wtoBxG53FWhyY2N-88" value="" style="endArrow=none;dashed=1;html=1;dashPattern=1 3;strokeWidth=2;rounded=0;" edge="1" parent="1">
          <mxGeometry width="50" height="50" relative="1" as="geometry">
            <mxPoint x="582.08" y="1290" as="sourcePoint" />
            <mxPoint x="582.08" y="1220" as="targetPoint" />
          </mxGeometry>
        </mxCell>
        <mxCell id="Y_l35wtoBxG53FWhyY2N-89" value="Comparison:&lt;br style=&quot;border-color: var(--border-color);&quot;&gt;&lt;span style=&quot;&quot;&gt;which pre-trained performs best?&lt;/span&gt;" style="rounded=0;whiteSpace=wrap;html=1;" vertex="1" parent="1">
          <mxGeometry x="512.75" y="1290" width="140" height="60" as="geometry" />
        </mxCell>
        <mxCell id="Y_l35wtoBxG53FWhyY2N-90" value="Data Augmentation&lt;br&gt;Condition C" style="rounded=0;whiteSpace=wrap;html=1;" vertex="1" parent="1">
          <mxGeometry x="520" y="280" width="120" height="60" as="geometry" />
        </mxCell>
        <mxCell id="Y_l35wtoBxG53FWhyY2N-91" value="" style="endArrow=classic;html=1;rounded=0;entryX=0.5;entryY=0;entryDx=0;entryDy=0;" edge="1" parent="1">
          <mxGeometry width="50" height="50" relative="1" as="geometry">
            <mxPoint x="584.05" y="220" as="sourcePoint" />
            <mxPoint x="584.05" y="280" as="targetPoint" />
          </mxGeometry>
        </mxCell>
        <mxCell id="Y_l35wtoBxG53FWhyY2N-92" style="edgeStyle=orthogonalEdgeStyle;rounded=0;orthogonalLoop=1;jettySize=auto;html=1;entryX=0.839;entryY=0.025;entryDx=0;entryDy=0;entryPerimeter=0;" edge="1" parent="1">
          <mxGeometry relative="1" as="geometry">
            <mxPoint x="585" y="338" as="sourcePoint" />
            <mxPoint x="586" y="650" as="targetPoint" />
          </mxGeometry>
        </mxCell>
        <mxCell id="Y_l35wtoBxG53FWhyY2N-93" value="Metrics C" style="rounded=0;whiteSpace=wrap;html=1;" vertex="1" parent="1">
          <mxGeometry x="507" y="760" width="130" height="60" as="geometry" />
        </mxCell>
        <mxCell id="Y_l35wtoBxG53FWhyY2N-97" value="" style="endArrow=classic;html=1;rounded=0;exitX=0.514;exitY=1.013;exitDx=0;exitDy=0;exitPerimeter=0;entryX=0.5;entryY=0;entryDx=0;entryDy=0;" edge="1" parent="1" source="Y_l35wtoBxG53FWhyY2N-42" target="Y_l35wtoBxG53FWhyY2N-93">
          <mxGeometry width="50" height="50" relative="1" as="geometry">
            <mxPoint x="400" y="680" as="sourcePoint" />
            <mxPoint x="450" y="630" as="targetPoint" />
          </mxGeometry>
        </mxCell>
        <mxCell id="Y_l35wtoBxG53FWhyY2N-98" value="" style="endArrow=none;dashed=1;html=1;dashPattern=1 3;strokeWidth=2;rounded=0;exitX=0.5;exitY=1;exitDx=0;exitDy=0;" edge="1" parent="1">
          <mxGeometry width="50" height="50" relative="1" as="geometry">
            <mxPoint x="742.5" y="823" as="sourcePoint" />
            <mxPoint x="743" y="853" as="targetPoint" />
            <Array as="points" />
          </mxGeometry>
        </mxCell>
        <mxCell id="Y_l35wtoBxG53FWhyY2N-99" value="" style="endArrow=none;dashed=1;html=1;dashPattern=1 3;strokeWidth=2;rounded=0;entryX=0.5;entryY=1;entryDx=0;entryDy=0;" edge="1" parent="1" target="Y_l35wtoBxG53FWhyY2N-93">
          <mxGeometry width="50" height="50" relative="1" as="geometry">
            <mxPoint x="572" y="880" as="sourcePoint" />
            <mxPoint x="410" y="800" as="targetPoint" />
          </mxGeometry>
        </mxCell>
      </root>
    </mxGraphModel>
  </diagram>
</mxfile>
